# This file uses centimeters as units for non-parametric coordinates.

mtllib cucc.mtl
g default
v 0.000001 4.000000 0.100000
v -4.000000 0.000000 0.100000
v -0.000000 -4.000000 0.100000
v 4.000000 0.000000 0.100000
v 0.000000 0.000000 4.100000
v -0.000001 4.000000 -0.100000
v 4.000000 0.000000 -0.100000
v 0.000000 -4.000000 -0.100000
v -4.000000 0.000000 -0.100000
v -0.000000 0.000000 -4.100000
vt 0.180323 0.181292
vt 0.106828 0.254786
vt 0.180323 0.328281
vt 0.253817 0.254786
vt 0.407337 0.500000
vt 0.444084 0.500000
vt 0.480832 0.500000
vt 0.517579 0.500000
vt 0.554326 0.500000
vt 0.480832 0.646989
vt 0.180323 0.181292
vt 0.253817 0.254786
vt 0.180323 0.328281
vt 0.106828 0.254786
vt 0.106828 0.500000
vt 0.143575 0.500000
vt 0.180323 0.646989
vt 0.180323 0.500000
vt 0.217070 0.500000
vt 0.253817 0.500000
vn -0.000000 0.000000 -1.000000
vn -0.000000 0.000000 -1.000000
vn -0.000000 0.000000 -1.000000
vn -0.000000 0.000000 -1.000000
vn -0.577350 0.577350 0.577350
vn -0.577350 0.577350 0.577350
vn -0.577350 0.577350 0.577350
vn -0.577350 -0.577350 0.577350
vn -0.577350 -0.577350 0.577350
vn -0.577350 -0.577350 0.577350
vn 0.577350 -0.577350 0.577350
vn 0.577350 -0.577350 0.577350
vn 0.577350 -0.577350 0.577350
vn 0.577350 0.577350 0.577350
vn 0.577350 0.577350 0.577350
vn 0.577350 0.577350 0.577350
vn 0.000000 0.000000 1.000000
vn 0.000000 0.000000 1.000000
vn 0.000000 0.000000 1.000000
vn 0.000000 0.000000 1.000000
vn 0.577350 0.577350 -0.577350
vn 0.577350 0.577350 -0.577350
vn 0.577350 0.577350 -0.577350
vn 0.577350 -0.577350 -0.577350
vn 0.577350 -0.577350 -0.577350
vn 0.577350 -0.577350 -0.577350
vn -0.577350 -0.577350 -0.577350
vn -0.577350 -0.577350 -0.577350
vn -0.577350 -0.577350 -0.577350
vn -0.577350 0.577350 -0.577350
vn -0.577350 0.577350 -0.577350
vn -0.577350 0.577350 -0.577350
s off
g cucc
usemtl oakAutumn1LeafShaderSG
f 1/1/1 4/4/2 3/3/3 2/2/4
f 1/5/5 2/6/6 5/10/7
f 2/6/8 3/7/9 5/10/10
f 3/7/11 4/8/12 5/10/13
f 4/8/14 1/9/15 5/10/16
f 6/11/17 9/12/18 8/13/19 7/14/20
f 6/15/21 7/16/22 10/17/23
f 7/16/24 8/18/25 10/17/26
f 8/18/27 9/19/28 10/17/29
f 9/19/30 6/20/31 10/17/32
